<?xml version="1.0" encoding="utf-8"?>
<!-- Generator: Adobe Illustrator 23.0.6, SVG Export Plug-In . SVG Version: 6.00 Build 0)  -->
<svg version="1.1" id="Layer_1" xmlns="http://www.w3.org/2000/svg" xmlns:xlink="http://www.w3.org/1999/xlink" x="0px" y="0px"
	 viewBox="0 0 125 125" style="enable-background:new 0 0 125 125;" xml:space="preserve">
<style type="text/css">
	.st0{fill-rule:evenodd;clip-rule:evenodd;fill:#333333;}
</style>
<g id="Page-1">
	<g id="logo-django" transform="translate(-8.000000, -5.000000)">
		<path id="Shape" class="st0" d="M29.42,45.91h5.69v26.08c-2.91,0.55-5.06,0.77-7.38,0.77c-6.95-0.01-10.57-3.11-10.57-9.08
			c0-5.75,3.84-9.48,9.78-9.48c0.92,0,1.63,0.07,2.48,0.29V45.91L29.42,45.91z M29.42,59.04c-0.67-0.22-1.22-0.29-1.92-0.29
			c-2.88,0-4.54,1.76-4.54,4.83c0,3,1.59,4.65,4.5,4.65c0.63,0,1.14-0.04,1.96-0.14V59.04L29.42,59.04z M44.16,54.61v13.06
			c0,4.5-0.34,6.66-1.33,8.52c-0.92,1.79-2.14,2.92-4.65,4.17l-5.28-2.49c2.51-1.17,3.73-2.2,4.5-3.77
			c0.81-1.61,1.07-3.47,1.07-8.38V54.61H44.16z M38.47,45.94h5.69v5.78h-5.69V45.94z M47.59,55.9c2.51-1.17,4.92-1.68,7.54-1.68
			c2.92,0,4.84,0.77,5.69,2.27c0.48,0.84,0.63,1.94,0.63,4.28v11.45c-2.55,0.36-5.76,0.62-8.12,0.62c-4.77,0-6.91-1.65-6.91-5.3
			c0-3.95,2.84-5.78,9.82-6.36v-1.24c0-1.02-0.52-1.39-1.96-1.39c-2.1,0-4.47,0.59-6.69,1.72L47.59,55.9z M56.5,64.85
			c-3.76,0.36-4.99,0.95-4.99,2.42c0,1.1,0.7,1.61,2.26,1.61c0.85,0,1.63-0.07,2.73-0.25L56.5,64.85L56.5,64.85z M64.22,55.49
			c3.36-0.88,6.13-1.28,8.93-1.28c2.91,0,5.02,0.66,6.28,1.94c1.18,1.2,1.55,2.52,1.55,5.34v11.05h-5.69V61.71
			c0-2.16-0.74-2.97-2.77-2.97c-0.78,0-1.48,0.07-2.62,0.41v13.39h-5.68V55.49z M83.19,75.61c1.99,1.02,3.98,1.5,6.09,1.5
			c3.73,0,5.32-1.5,5.32-5.09v-0.11c-1.11,0.54-2.22,0.77-3.69,0.77c-4.99,0-8.16-3.26-8.16-8.42c0-6.41,4.69-10.03,13-10.03
			c2.44,0,4.69,0.25,7.43,0.81l-1.95,4.06c-1.51-0.29-0.12-0.04-1.27-0.15v0.59l0.07,2.38l0.04,3.08c0.04,0.77,0.04,1.54,0.07,2.31
			v1.54c0,4.83-0.41,7.1-1.63,8.97c-1.77,2.74-4.84,4.1-9.2,4.1c-2.22,0-4.14-0.33-6.13-1.1V75.61L83.19,75.61z M94.5,58.78h-0.18
			H93.9c-1.11-0.04-2.4,0.25-3.29,0.81c-1.36,0.77-2.06,2.16-2.06,4.14c0,2.81,1.41,4.43,3.92,4.43c0.78,0,1.41-0.14,2.14-0.36
			v-0.41v-1.54c0-0.66-0.04-1.39-0.04-2.16l-0.04-2.6l-0.04-1.86V58.78z M112.01,54.14c5.68,0,9.15,3.55,9.15,9.29
			c0,5.89-3.62,9.58-9.38,9.58c-5.69,0-9.2-3.55-9.2-9.26C102.59,57.83,106.21,54.14,112.01,54.14z M111.89,68.47
			c2.18,0,3.47-1.79,3.47-4.9c0-3.08-1.25-4.9-3.43-4.9c-2.26,0-3.55,1.79-3.55,4.9S109.68,68.47,111.89,68.47L111.89,68.47z"/>
	</g>
</g>
</svg>
